<?xml version="1.0" encoding="utf-8"?>
<!-- Generator: Adobe Illustrator 26.0.3, SVG Export Plug-In . SVG Version: 6.00 Build 0)  -->
<svg version="1.1" id="Layer_1" xmlns="http://www.w3.org/2000/svg" xmlns:xlink="http://www.w3.org/1999/xlink" x="0px" y="0px"
	 viewBox="0 0 50 50" style="enable-background:new 0 0 50 50;" xml:space="preserve">
<style type="text/css">
	.st0{fill:#69BECB;}
	.st1{fill:#0057B7;}
	.st2{fill:#FFFFFF;}
	.st3{fill:#1D4B90;}
	.st4{fill:#F7DC41;}
	.st5{fill:#001E77;}
	.st6{fill:#5CC4FF;}
</style>
<g>
	<g>
		<path class="st0" d="M16.58821,29.97126h0.0254c-0.00286-0.0132-0.01135-0.0254-0.0254-0.0254V29.97126z"/>
		<path class="st1" d="M26.55028,43.74117c0,0,0,0.90728,0,3.05339c0,2.14608,1.29896,1.92018,1.29896,1.92018v0.03064
			l12.30797,0.02627c-0.34408-0.9188-0.95058-1.65632-1.85038-2.03857l-0.10372-0.01737
			c6.36985-6.44328,12.73339-16.17464,6.01425-24.85622c-1.16975-1.15454-2.33425-2.45909-3.09798-3.21293
			c4.75177-6.40165-0.26071-11.11292-0.26071-11.11292c2.56749-1.58486,3.69108-3.81274,3.42968-7.04752
			c-2.97356,4.79459-7.57695,5.16462-12.27444,5.18391c-2.53562,0.01042-5.07938-0.08758-7.60629-0.29636
			c-3.46222-0.28606-6.44578-1.52879-8.22179-4.92077c-0.54658,3.37161,0.92813,5.49884,3.23898,7.07374
			c-2.98073,3.55105-2.95369,7.41283,0.09912,11.10185c-1.06569,1.04289-2.13504,2.08944-3.31485,3.24403
			c-0.70384,0.75926-1.28184,1.53521-1.74601,2.3235c-0.00351,0.00594-0.00637,0.01198-0.00986,0.01792
			c1.22945,0.22781,2.16425,1.30642,2.16425,2.60078v3.15653h2.82152v-3.13113c0-1.45935,1.18745-2.64699,2.6468-2.64699h3.19348
			c1.45954,0,2.64699,1.18764,2.64699,2.64699v3.19347c0,1.45935-1.18745,2.6466-2.64699,2.6466h-3.13132v3.06955h3.13132
			c1.45954,0,2.64699,1.18764,2.64699,2.64699c0,0-0.01308,3.13152-0.02925,3.13152c0,0,0.14764,0.98213-0.92893,0.98213
			c-0.45246,0-0.37992-0.95299-0.37992-0.95299v-3.1607c0-0.72285-0.58598-1.30883-1.30883-1.30883H22.1186
			c-0.72285,0-1.30883-0.58598-1.30883-1.30883V32.6511c0-0.72285,0.58598-1.30883,1.30883-1.30883h3.16071
			c0.72285,0,1.30883-0.586,1.30883-1.30883v-3.19347c0-0.72283-0.58598-1.30883-1.30883-1.30883h-3.19346
			c-0.72285,0-1.30883,0.58599-1.30883,1.30883v3.16072c0,0.72283-0.58598,1.30883-1.30883,1.30883h-2.75021l-0.12974-0.02543
			c-0.72285,0-1.30883-0.58598-1.30883-1.30883v-3.1607c0-0.72285-0.58598-1.30883-1.30883-1.30883h-3.1607
			c-0.72285,0-1.30883-0.58598-1.30883-1.30883v-3.12795c0-0.72285,0.58598-1.30883,1.30883-1.30883h3.1607
			c0.72285,0,1.30883-0.58599,1.30883-1.30883v-3.19347c0-0.72283-0.58598-1.30883-1.30883-1.30883h-3.19346
			c-0.72285,0-1.30883,0.58599-1.30883,1.30883v3.16072c0,0.72283-0.58598,1.30883-1.30883,1.30883H4.99876
			c-0.72283,0-1.30883,0.58598-1.30883,1.30883v3.19346c0,0.72285,0.58599,1.30883,1.30883,1.30883h3.16072
			c0.72285,0,1.30883,0.58598,1.30883,1.30883v3.12795c0,0.72285-0.58598,1.30883-1.30883,1.30883H5.0151
			c-0.72285,0-1.30883,0.58599-1.30883,1.30883v3.25618c0,0.72283,0.58598,1.30883,1.30883,1.30883h3.17713
			c0.72283,0,1.30883-0.58599,1.30883-1.30883v-3.87784c0-0.36142,0.29298-0.65441,0.65441-0.65441h4.43678
			c0.31999,0,0.58633,0.22966,0.6432,0.53313l0.00249,0.01378c-0.00361,0.00511-0.00719,0.01025-0.01073,0.01541
			c-0.1442,0.21033-0.22856,0.4649-0.22856,0.73917v3.19346c0,0.72285,0.58599,1.30883,1.30883,1.30883h3.16072
			c0.72285,0,1.30883,0.58598,1.30883,1.30883v3.12795c0,0.72285-0.58598,1.30883-1.30883,1.30883h-3.14438
			c-0.72285,0-1.30883,0.58599-1.30883,1.30883v3.25618c0,0.72283,0.58598,1.30883,1.30883,1.30883h3.17713
			c0.72283,0,1.30883-0.58599,1.30883-1.30883v-3.87784c0-0.36142,0.29298-0.65442,0.65441-0.65442h4.43678
			C25.90097,42.89899,26.55028,42.93136,26.55028,43.74117z"/>
		<polygon class="st0" points="16.61746,29.97511 16.61746,29.97126 16.61361,29.97126 		"/>
	</g>
	<path class="st2" d="M24.31874,8.49736c2.78162-0.02458,5.04195,2.19562,5.01179,4.92286
		c-0.02851,2.5797-2.33676,4.89207-4.90586,4.9146c-2.69696,0.02366-4.9265-2.24498-4.91486-5.00104
		C19.52153,10.56101,21.54912,8.52183,24.31874,8.49736z"/>
	<path class="st2" d="M36.13697,8.50052c2.6968,0.04114,4.82077,2.16463,4.84392,4.84278
		c0.02279,2.63609-2.34391,5.01606-4.96064,4.98842c-2.70571-0.02857-4.87498-2.26923-4.85976-5.01968
		C31.17601,10.50536,33.29445,8.45715,36.13697,8.50052z"/>
	<path class="st3" d="M24.08181,10.49546c1.71593-0.11404,3.1547,1.11714,3.24649,2.77805
		c0.08323,1.50617-1.18901,2.89317-2.7527,3.00098c-1.66406,0.11473-3.03957-1.08664-3.12281-2.72748
		C21.36963,11.90767,22.49547,10.60088,24.08181,10.49546z"/>
	<path class="st3" d="M39.0101,13.44498c-0.03805,1.51589-1.39277,2.83431-2.93583,2.85718
		c-1.63641,0.02425-2.97491-1.29725-2.96713-2.9294c0.008-1.67978,1.26487-2.9039,2.96472-2.88744
		C37.70913,10.50118,39.05009,11.85191,39.0101,13.44498z"/>
	<polygon class="st4" points="27.63621,18.23863 30.07101,22.47657 32.50581,18.23863 30.13752,17.36494 	"/>
	<path class="st5" d="M39.0101,13.44498c-0.03805,1.51589-1.39277,2.83431-2.93583,2.85718
		c-1.63641,0.02425-2.97491-1.29725-2.96713-2.9294c0.008-1.67978,1.26487-2.9039,2.96472-2.88744
		C37.70913,10.50118,39.05009,11.85191,39.0101,13.44498z"/>
	<path class="st5" d="M24.08181,10.49546c1.71593-0.11404,3.1547,1.11714,3.24649,2.77805
		c0.08323,1.50617-1.18901,2.89317-2.7527,3.00098c-1.66406,0.11473-3.03957-1.08664-3.12281-2.72748
		C21.36963,11.90767,22.49547,10.60088,24.08181,10.49546z"/>
	<path class="st6" d="M13.74326,18.58624h-2.72751c-0.22667,0-0.41213-0.18546-0.41213-0.41213v-2.75356
		c0-0.22667,0.18546-0.41213,0.41213-0.41213h2.72751c0.22667,0,0.41213,0.18546,0.41213,0.41213v2.75356
		C14.15539,18.40078,13.96993,18.58624,13.74326,18.58624z"/>
	<path class="st6" d="M13.74326,30.24125h-2.72751c-0.22667,0-0.41213-0.18546-0.41213-0.41213v-2.75356
		c0-0.22667,0.18546-0.41213,0.41213-0.41213h2.72751c0.22667,0,0.41213,0.18546,0.41213,0.41213v2.75356
		C14.15539,30.05579,13.96993,30.24125,13.74326,30.24125z"/>
	<path class="st6" d="M25.06379,41.79384h-2.72751c-0.22667,0-0.41213-0.18546-0.41213-0.41213v-2.75356
		c0-0.22667,0.18546-0.41213,0.41213-0.41213h2.72751c0.22667,0,0.41213,0.18546,0.41213,0.41213v2.75356
		C25.47592,41.60838,25.29046,41.79384,25.06379,41.79384z"/>
	<path class="st6" d="M25.06379,30.24125h-2.72751c-0.22667,0-0.41213-0.18546-0.41213-0.41213v-2.75356
		c0-0.22667,0.18546-0.41213,0.41213-0.41213h2.72751c0.22667,0,0.41213,0.18546,0.41213,0.41213v2.75356
		C25.47592,30.05579,25.29046,30.24125,25.06379,30.24125z"/>
	<path class="st6" d="M19.23154,35.99469h-2.72751c-0.22667,0-0.41213-0.18546-0.41213-0.41213v-2.75356
		c0-0.22667,0.18546-0.41213,0.41213-0.41213h2.72751c0.22667,0,0.41213,0.18546,0.41213,0.41213v2.75356
		C19.64367,35.80923,19.45821,35.99469,19.23154,35.99469z"/>
	<path class="st6" d="M19.23154,47.58233h-2.72751c-0.22667,0-0.41213-0.18546-0.41213-0.41213v-2.75356
		c0-0.22667,0.18546-0.41213,0.41213-0.41213h2.72751c0.22667,0,0.41213,0.18546,0.41213,0.41213v2.75356
		C19.64367,47.39687,19.45821,47.58233,19.23154,47.58233z"/>
	<path class="st6" d="M7.92095,35.99469H5.19344c-0.22667,0-0.41213-0.18546-0.41213-0.41213v-2.75356
		c0-0.22667,0.18546-0.41213,0.41213-0.41213h2.72751c0.22667,0,0.41213,0.18546,0.41213,0.41213v2.75356
		C8.33308,35.80923,8.14762,35.99469,7.92095,35.99469z"/>
	<path class="st6" d="M7.92095,24.409H5.19344c-0.22667,0-0.41213-0.18546-0.41213-0.41213V21.2433
		c0-0.22667,0.18546-0.41213,0.41213-0.41213h2.72751c0.22667,0,0.41213,0.18546,0.41213,0.41213v2.75356
		C8.33308,24.22354,8.14762,24.409,7.92095,24.409z"/>
	<path class="st6" d="M39.86009,20.35188c0,0,13.02042,8.03946-2.09725,24.55529
		C37.76284,44.90718,49.55987,31.10029,39.86009,20.35188z"/>
	<circle class="st2" cx="23.9138" cy="12.46704" r="0.87005"/>
	<circle class="st2" cx="35.5145" cy="12.46704" r="0.87005"/>
</g>
</svg>
